<svg xmlns="http://www.w3.org/2000/svg" width="16" height="16" viewBox="0 0 16 16"><path d="M6.88 9.934c-.21 0-.417-.08-.576-.238-1.486-1.486-1.486-3.905 0-5.392l3-3C10.024.584 10.982.187 12 .187s1.976.397 2.696 1.117c1.486 1.487 1.486 3.905 0 5.392l-1.37 1.37c-.318.318-.833.318-1.15 0s-.317-.83 0-1.148l1.37-1.37c.854-.854.854-2.242 0-3.095-.412-.413-.962-.64-1.546-.64s-1.134.227-1.547.64l-3 3c-.853.853-.853 2.24 0 3.094.317.317.317.832 0 1.15-.16.158-.367.237-.575.237z"/><path d="M4 15.813c-1.018 0-1.976-.397-2.696-1.117-1.486-1.486-1.486-3.905 0-5.392l1.37-1.37c.318-.318.833-.318 1.15 0s.317.83 0 1.148l-1.37 1.37c-.854.854-.854 2.242 0 3.095.412.413.96.64 1.546.64s1.134-.227 1.547-.64l3-3c.853-.853.853-2.24 0-3.094-.317-.317-.317-.832 0-1.15s.832-.316 1.15 0c1.485 1.487 1.485 3.906 0 5.393l-3 3c-.72.72-1.68 1.117-2.697 1.117z"/></svg>
